Source:   Bugle-Pearly_Gates-DVDRIP-x264-2009-YVP

Encoded for PSP & iPod & iPhone

I have tested this on a PSP Slim 2000 w/ 5.00 M33.6 (custom firmware) & a PSP 1000 5.00 (official Sony)

I haven't tested this on Zune or iPod Touch as I don't have one, but if someone would test it and let me know, it would be nice.

If you need/want to get in touch with me (request, reseed, etc.). Send an email to movi3sdir3ct@hotbox.ru

I like the message that it has. (^_^) 

Resolution: 320 X 240

Genre: Reggae

General
Format                           : MPEG-4
Codec ID                         : M4V 
File size                        : 21.7 MiB
Duration                         : 3mn 55s
Overall bit rate                 : 772 Kbps
Movie name                       : Bugle - Pearly Gates mvid
Encoder                          : The Day Walker aka AngelicDemon
Encoded date                     : 2010
Writing application              : Lavf52.33.0

Video
ID                               : 1
Format                           : AVC
Format/Info                      : Advanced Video Codec
Format profile                   : Baseline@L1.3
Format settings, CABAC           : No
Format settings, ReFrames        : 1 frame
Codec ID                         : avc1
Codec ID/Info                    : Advanced Video Coding
Duration                         : 3mn 55s
Bit rate mode                    : Variable
Bit rate                         : 641 Kbps
Width                            : 320 pixels
Height                           : 240 pixels
Display aspect ratio             : 4:3
Frame rate mode                  : Constant
Frame rate                       : 29.970 fps
Color space                      : YUV
Chroma subsampling               : 4:2:0
Bit depth                        : 8 bits
Scan type                        : Progressive
Bits/(Pixel*Frame)               : 0.278
Stream size                      : 18.0 MiB (83%)

Audio
ID                               : 2
Format                           : AAC
Format/Info                      : Advanced Audio Codec
Format version                   : Version 4
Format profile                   : LC
Format settings, SBR             : No
Codec ID                         : 40
Duration                         : 3mn 55s
Bit rate mode                    : Variable
Bit rate                         : 128 Kbps
Channel(s)                       : 2 channels
Channel positions                : Front: L R
Sampling rate                    : 48.0 KHz
Stream size                      : 3.60 MiB (17%)


Please seed when finished downloading and leave a comment, request, etc. And above all ENJOY!

If anyone would like any tv show, movie, music video, or yes, even XXX, for PSP or any other handheld device for that matter. I would be more than happy to do it for you. Just leave a comment or send an email to movi3sdir3ct@hotbox.ru 

I check my email hourly.
